<?xml version="1.0" encoding="UTF-8" standalone="no"?>
<!-- Created with Inkscape (http://www.inkscape.org/) -->

<svg
   width="3in"
   height="3in"
   viewBox="0 0 76.199998 76.2"
   version="1.1"
   id="svg1"
   inkscape:export-filename="leaf-test.png"
   inkscape:export-xdpi="37.333332"
   inkscape:export-ydpi="37.333332"
   inkscape:version="1.3.2 (091e20e, 2023-11-25)"
   sodipodi:docname="icon.svg"
   xml:space="preserve"
   xmlns:inkscape="http://www.inkscape.org/namespaces/inkscape"
   xmlns:sodipodi="http://sodipodi.sourceforge.net/DTD/sodipodi-0.dtd"
   xmlns="http://www.w3.org/2000/svg"
   xmlns:svg="http://www.w3.org/2000/svg"><sodipodi:namedview
     id="namedview1"
     pagecolor="#ffffff"
     bordercolor="#000000"
     borderopacity="0.25"
     inkscape:showpageshadow="2"
     inkscape:pageopacity="0.0"
     inkscape:pagecheckerboard="0"
     inkscape:deskcolor="#d1d1d1"
     inkscape:document-units="in"
     inkscape:zoom="2.1428502"
     inkscape:cx="150.26715"
     inkscape:cy="139.06712"
     inkscape:window-width="1728"
     inkscape:window-height="1051"
     inkscape:window-x="0"
     inkscape:window-y="33"
     inkscape:window-maximized="0"
     inkscape:current-layer="svg1" /><defs
     id="defs1"><clipPath
       clipPathUnits="userSpaceOnUse"
       id="clipPath9"><g
         inkscape:label="Clip"
         id="use9"><rect
           style="fill:none;fill-opacity:1;stroke:none;stroke-width:2.54;stroke-linejoin:round;stroke-dasharray:none;stroke-opacity:1;paint-order:markers stroke fill"
           id="rect1"
           width="59.689999"
           height="59.689999"
           x="8.2550001"
           y="8.2550001"
           rx="7.6199999"
           ry="7.6199999" /></g></clipPath><clipPath
       clipPathUnits="userSpaceOnUse"
       id="clipPath9-7"><g
         inkscape:label="Clip"
         id="use9-0"><rect
           style="fill:none;fill-opacity:1;stroke:none;stroke-width:2.54;stroke-linejoin:round;stroke-dasharray:none;stroke-opacity:1;paint-order:markers stroke fill"
           id="rect1-3"
           width="59.689999"
           height="59.689999"
           x="8.2550001"
           y="8.2550001"
           rx="7.6199999"
           ry="7.6199999" /></g></clipPath><style
       id="style1-8">.cls-1{fill:#01a437;}</style></defs><rect
     style="display:inline;fill:#2e7d32;fill-opacity:1;stroke:none;stroke-width:2.54;stroke-linejoin:round;stroke-dasharray:none;stroke-opacity:1;paint-order:markers stroke fill"
     id="rect2"
     width="59.689999"
     height="59.689999"
     x="8.2550001"
     y="8.2550001"
     rx="7.6199999"
     ry="7.6199999"
     inkscape:label="rect2" /><rect
     style="display:none;fill:#df83df;fill-opacity:1;stroke:none;stroke-width:2.54;stroke-linejoin:round;stroke-dasharray:none;stroke-opacity:1;paint-order:markers stroke fill"
     id="rect2-9"
     width="59.689999"
     height="59.689999"
     x="8.2550001"
     y="8.2550001"
     rx="7.6199999"
     ry="7.6199999" /><g
     id="g2"
     transform="matrix(0.41292771,0,0,0.41292771,19.05,12.730322)"
     style="display:none;fill:none;fill-opacity:1;stroke:none;stroke-opacity:1"><path
       class="st0"
       d="M 18.61,54.89 C 15.7,28.8 30.94,10.45 59.52,0 42.02,22.71 74.44,47.31 76.23,70.89 80.42,63.74 82.8,54.2 83.27,41.44 c 21.43,33.62 3.66,88.57 -43.5,80.67 -4.33,-0.72 -8.5,-2.09 -12.3,-4.13 C 10.27,108.8 0,88.79 0,69.68 0,57.5 5.21,46.63 11.95,37.99 c 0.9,8.46 2.82,14.77 6.66,16.9 z"
       id="path1-8"
       style="stroke:none" /><path
       class="st1"
       d="m 33.87,92.58 c -4.86,-12.55 -4.19,-32.82 9.42,-39.93 0.1,23.3 23.05,26.27 18.8,51.14 3.92,-4.44 5.9,-11.54 6.25,-17.15 6.22,14.24 1.34,25.63 -7.53,31.43 -26.97,17.64 -50.19,-18.12 -34.75,-37.72 0.47,4.38 5.83,11.14 7.81,12.23 z"
       id="path2-3"
       style="stroke:none;stroke-opacity:1" /></g><style
     type="text/css"
     id="style1">.st0{fill-rule:evenodd;clip-rule:evenodd;fill:#EC6F59;} .st1{fill-rule:evenodd;clip-rule:evenodd;fill:#FAD15C;}</style><g
     style="fill:#000000"
     id="g3"
     transform="matrix(2.4694444,0,0,2.4694444,8.4666667,8.4666667)"><rect
       id="primary"
       x="3"
       y="2"
       width="18"
       height="20"
       rx="2"
       style="fill:#f5f5f5;fill-opacity:1" /><path
       id="secondary"
       d="M 7,2 H 5 A 2,2 0 0 0 3,4 v 16 a 2,2 0 0 0 2,2 h 2 z"
       style="fill:#363636;fill-opacity:1" /></g><path
     class="cls-1"
     d="m 41.843145,49.126553 c 10.718538,-1.192785 16.647327,-8.196528 11.032756,-22.898601 -4.401112,3.08016 -10.416724,5.085363 -13.436933,9.209468 1.976263,1.734398 3.607299,3.654846 4.060021,6.164451 2.726664,-3.32409 5.71173,-6.350502 7.282817,-9.715936 -1.610365,8.076629 -4.13444,11.129915 -8.01668,15.258153 a 19.357452,19.357452 0 0 1 -0.921981,1.988668 z m -3.080158,0.826888 c -8.304025,-2.019673 -12.268954,-7.996007 -6.180989,-18.609117 4.919984,4.738068 13.600243,7.747941 7.936059,17.749154 a 5.598033,5.598033 0 0 1 -0.378301,0.605695 c -1.01914,-4.94479 -5.089497,-8.858038 -6.284351,-13.009018 0.277008,6.782551 2.232598,8.762947 5.261076,13.281892 -0.117831,0 -0.235663,-0.01241 -0.353494,-0.02688 z"
     id="path1"
     style="stroke-width:0.206722;fill:#2e7d32;fill-opacity:1" /></svg>
